<?xml version="1.0" standalone="no"?><!DOCTYPE svg PUBLIC "-//W3C//DTD SVG 1.1//EN" "http://www.w3.org/Graphics/SVG/1.1/DTD/svg11.dtd"><svg t="1749799523296" class="icon" viewBox="0 0 1024 1024" version="1.1" xmlns="http://www.w3.org/2000/svg" p-id="18095" width="32" height="32" xmlns:xlink="http://www.w3.org/1999/xlink"><path d="M960.067358 340.902287A60.230086 60.230086 0 0 0 903.451077 301.15043h-155.995923l198.156983-198.156983A60.230086 60.230086 0 0 0 903.451077 0H361.380303a60.230086 60.230086 0 0 0-53.604777 33.126547l-240.920344 481.840688A60.230086 60.230086 0 0 0 120.459959 602.30086h149.370613l-144.552206 337.890782a60.230086 60.230086 0 0 0 93.958934 69.8669l722.761032-602.30086a60.230086 60.230086 0 0 0 18.069026-66.855395z m-625.188293 415.587593l81.912917-190.929373A60.230086 60.230086 0 0 0 361.380303 481.840688H218.032698l180.690258-361.380516h361.380516L559.537286 318.617155A60.230086 60.230086 0 0 0 602.300647 421.610602h134.915392z" fill="#1296db" p-id="18096"></path></svg>